<svg width="1508" height="1400" viewBox="0 0 1508 1400" fill="none" xmlns="http://www.w3.org/2000/svg">
<circle cx="1043.27" cy="519.447" r="151.033" transform="rotate(31.8745 1043.27 519.447)" fill="#F18193" fill-opacity="0.5"/>
<circle cx="1299.78" cy="678.956" r="151.033" transform="rotate(31.8745 1299.78 678.956)" fill="#F18193" fill-opacity="0.5"/>
<circle cx="1140.27" cy="935.471" r="151.033" transform="rotate(31.8745 1140.27 935.471)" fill="#F18193" fill-opacity="0.5"/>
<circle cx="883.757" cy="775.963" r="151.033" transform="rotate(31.8745 883.757 775.963)" fill="#F18193" fill-opacity="0.5"/>
<circle cx="980.764" cy="1191.99" r="151.033" transform="rotate(31.8745 980.764 1191.99)" fill="#F18193" fill-opacity="0.5"/>
<circle cx="724.249" cy="1032.48" r="151.033" transform="rotate(31.8745 724.249 1032.48)" fill="#F18193" fill-opacity="0.5"/>
<circle cx="527.03" cy="208.013" r="151.033" transform="rotate(31.8745 527.03 208.013)" fill="#F18193" fill-opacity="0.5"/>
<circle cx="783.546" cy="367.521" r="151.033" transform="rotate(31.8745 783.546 367.521)" fill="#F18193" fill-opacity="0.5"/>
<circle cx="624.037" cy="624.037" r="151.033" transform="rotate(31.8745 624.037 624.037)" fill="#F18193" fill-opacity="0.5"/>
<circle cx="367.521" cy="464.529" r="151.033" transform="rotate(31.8745 367.521 464.529)" fill="#F18193" fill-opacity="0.5"/>
<circle cx="464.528" cy="880.553" r="151.033" transform="rotate(31.8745 464.528 880.553)" fill="#F18193" fill-opacity="0.5"/>
<circle cx="208.013" cy="721.044" r="151.033" transform="rotate(31.8745 208.013 721.044)" fill="#F18193" fill-opacity="0.5"/>
</svg>
