<svg width="128" height="128" viewBox="0 0 128 128" fill="none" xmlns="http://www.w3.org/2000/svg">
<rect width="128" height="128" fill="#AB0F29"/>
<path d="M81.6199 75.5935C81.5946 77.827 80.2171 79.1334 77.1054 79.5651L77.2408 80.5494L85.2664 79.4362L85.9013 84.0314L82.8443 84.4553L84.1067 93.591C84.5073 96.4904 86.6858 97.3596 90.4528 96.8371L91.6016 105.152C88.3092 105.887 84.5499 106.465 82.6257 106.23C75.2093 105.307 72.2419 101.147 70.9418 91.7379L70.1782 86.2123L67.503 86.5839L66.8681 81.9887L69.5433 81.6171L67.8579 69.4182L80.5241 67.6611C80.5288 67.6957 81.5972 75.4297 81.6199 75.5935Z" fill="white"/>
<path d="M46.3387 71.2173C46.1123 74.2278 45.4357 76.1295 44.0016 79.357L41.7931 84.1949L42.8528 84.5969L45.9417 78.2682C47.5845 74.3682 50.5 71.1108 55.0396 71.3673C64.4028 71.8966 66.2512 78.5036 65.6814 88.625L64.6924 106.196L51.5267 105.451L52.5157 87.8809C52.599 86.4024 52.533 82.5196 49.7556 82.3056C46.0108 82.0941 45.5061 86.0011 45.4228 87.4797L44.4338 105.051L31.2681 104.307L33.173 70.4732L46.3387 71.2173Z" fill="white"/>
<path d="M78.8993 26.8568L77.2602 36.7728C77.035 38.1349 76.6857 41.9396 79.35 42.3818C82.9387 42.9774 83.8319 39.2633 84.057 37.9012L85.6961 27.9851L98.311 30.0784L94.0783 55.6864C92.6194 64.5129 85.3195 67.4441 76.8372 66.0364C71.5629 65.1611 66.6511 64.1216 64.6109 62.6075L66.2584 52.6366C66.2584 52.6366 71.0439 54.103 75.3394 54.8159C79.0368 55.4295 81.3832 54.4192 81.9142 50.8686L82.6072 46.6728C80.6175 50.2612 77.4582 53.1521 73.1082 52.4302C64.1365 50.9413 63.0514 44.3234 64.6453 34.6795L66.2844 24.7635L78.8993 26.8568Z" fill="white"/>
<path d="M62.9835 59.5729L50.5377 60.0743L40.0245 31.7562L38.9237 31.8C41.1475 37.7351 42.6641 43.9201 42.9142 50.1557L43.3237 60.3642L30.5474 60.8791L29 22.3062L41.4458 21.8048L51.959 50.1229L53.0607 50.079C50.8369 44.144 49.3195 37.959 49.0694 31.7234L48.6598 21.5149L61.437 21L62.9835 59.5729Z" fill="white"/>
</svg>
