<svg width="128" height="128" viewBox="0 0 130 130" fill="none" xmlns="http://www.w3.org/2000/svg">
<path d="M130 65C130 69.1475 124.255 72.717 123.473 76.6266C122.657 80.6721 126.6 86.1454 125.071 89.8849C123.507 93.6925 116.844 94.7463 114.566 98.1119C112.288 101.511 113.818 108.073 110.962 110.962C108.073 113.852 101.512 112.288 98.1119 114.566C94.7463 116.81 93.6585 123.473 89.8849 125.071C86.1454 126.6 80.7061 122.691 76.6266 123.473C72.6831 124.255 69.1475 130 65 130C60.8525 130 57.2829 124.255 53.3734 123.473C49.3279 122.657 43.8546 126.6 40.1151 125.071C36.3075 123.507 35.2537 116.844 31.8881 114.566C28.4885 112.288 21.9273 113.818 19.0377 110.962C16.148 108.073 17.7118 101.511 15.4341 98.1119C13.1904 94.7463 6.5272 93.6585 4.92939 89.8849C3.39958 86.1454 7.3091 80.7061 6.5272 76.6266C5.7453 72.683 0 69.1475 0 65C0 60.8525 5.7453 57.2829 6.5272 53.3734C7.3431 49.3279 3.39958 43.8546 4.92939 40.1151C6.4932 36.3075 13.1564 35.2537 15.4341 31.8881C17.7118 28.4885 16.182 21.9273 19.0377 19.0377C21.9273 16.148 28.4885 17.7118 31.8881 15.4341C35.2537 13.1904 36.3415 6.5272 40.1151 4.92939C43.8546 3.39958 49.2939 7.30909 53.3734 6.52719C57.3169 5.74529 60.8525 0 65 0C69.1475 0 72.7171 5.74529 76.6266 6.52719C80.6721 7.34309 86.1454 3.39958 89.8849 4.92939C93.6925 6.4932 94.7463 13.1564 98.1119 15.4341C101.512 17.7118 108.073 16.182 110.962 19.0377C113.852 21.9273 112.288 28.4885 114.566 31.8881C116.81 35.2537 123.473 36.3415 125.071 40.1151C126.6 43.8546 122.691 49.2939 123.473 53.3734C124.255 57.3169 130 60.8525 130 65Z" fill="#AB0F29"/>
<path d="M43.04 38.12C42.9067 37.9867 42.8 37.8933 42.72 37.84C42.64 37.7867 42.5467 37.76 42.44 37.76C42.3333 37.76 42.2267 37.8 42.12 37.88C42.0133 37.96 41.96 38.08 41.96 38.24V59.4H42.36V38.32C42.36 38.2933 42.36 38.2667 42.36 38.24C42.3867 38.2133 42.4133 38.2 42.44 38.2C42.4667 38.2 42.4933 38.2133 42.52 38.24C42.5733 38.2667 42.6133 38.2933 42.64 38.32L57.76 55.28V59.4H58.16V37.8H57.76V54.68L43.04 38.12ZM45.2 63H39.2C38.6933 63 38.32 62.8933 38.08 62.68C37.8667 62.44 37.76 62.0667 37.76 61.56V35.64C37.76 35.1333 37.8667 34.7733 38.08 34.56C38.32 34.32 38.6933 34.2 39.2 34.2H43.36C43.8667 34.2 44.2933 34.28 44.64 34.44C45.0133 34.6 45.3733 34.88 45.72 35.28L53.48 44.16V35.64C53.48 35.1333 53.5867 34.7733 53.8 34.56C54.04 34.32 54.4133 34.2 54.92 34.2H60.92C61.4267 34.2 61.7867 34.32 62 34.56C62.24 34.7733 62.36 35.1333 62.36 35.64V61.56C62.36 62.0667 62.24 62.44 62 62.68C61.7867 62.8933 61.4267 63 60.92 63H54.92C54.4133 63 54.04 62.8933 53.8 62.68C53.5867 62.44 53.48 62.0667 53.48 61.56V56.64L46.64 48.36V61.56C46.64 62.0667 46.52 62.44 46.28 62.68C46.0667 62.8933 45.7067 63 45.2 63ZM43.04 71.12C42.9067 70.9867 42.8 70.8933 42.72 70.84C42.64 70.7867 42.5467 70.76 42.44 70.76C42.3333 70.76 42.2267 70.8 42.12 70.88C42.0133 70.96 41.96 71.08 41.96 71.24V92.4H42.36V71.32C42.36 71.2933 42.36 71.2667 42.36 71.24C42.3867 71.2133 42.4133 71.2 42.44 71.2C42.4667 71.2 42.4933 71.2133 42.52 71.24C42.5733 71.2667 42.6133 71.2933 42.64 71.32L57.76 88.28V92.4H58.16V70.8H57.76V87.68L43.04 71.12ZM45.2 96H39.2C38.6933 96 38.32 95.8933 38.08 95.68C37.8667 95.44 37.76 95.0667 37.76 94.56V68.64C37.76 68.1333 37.8667 67.7733 38.08 67.56C38.32 67.32 38.6933 67.2 39.2 67.2H43.36C43.8667 67.2 44.2933 67.28 44.64 67.44C45.0133 67.6 45.3733 67.88 45.72 68.28L53.48 77.16V68.64C53.48 68.1333 53.5867 67.7733 53.8 67.56C54.04 67.32 54.4133 67.2 54.92 67.2H60.92C61.4267 67.2 61.7867 67.32 62 67.56C62.24 67.7733 62.36 68.1333 62.36 68.64V94.56C62.36 95.0667 62.24 95.44 62 95.68C61.7867 95.8933 61.4267 96 60.92 96H54.92C54.4133 96 54.04 95.8933 53.8 95.68C53.5867 95.44 53.48 95.0667 53.48 94.56V89.64L46.64 81.36V94.56C46.64 95.0667 46.52 95.44 46.28 95.68C46.0667 95.8933 45.7067 96 45.2 96Z" fill="white"/>
<path d="M83.36 63H76.88C76.3733 63 76 62.8933 75.76 62.68C75.5467 62.44 75.44 62.0667 75.44 61.56V56.44L69.32 48.24C68.7067 47.4133 68.2933 46.6933 68.08 46.08C67.8933 45.4667 67.8 44.5467 67.8 43.32V35.64C67.8 35.1333 67.9067 34.7733 68.12 34.56C68.36 34.32 68.7333 34.2 69.24 34.2H75.4C75.9067 34.2 76.2667 34.32 76.48 34.56C76.72 34.7733 76.84 35.1333 76.84 35.64V42.2C76.84 42.4667 76.8533 42.7467 76.88 43.04C76.9067 43.3333 77.0133 43.6133 77.2 43.88L79.04 46.76C79.1733 47 79.3067 47.1733 79.44 47.28C79.6 47.3867 79.7867 47.44 80 47.44H80.4C80.6133 47.44 80.7867 47.3867 80.92 47.28C81.08 47.1733 81.2267 47 81.36 46.76L83.2 43.88C83.3867 43.6133 83.4933 43.3333 83.52 43.04C83.5467 42.7467 83.56 42.4667 83.56 42.2V35.64C83.56 35.1333 83.6667 34.7733 83.88 34.56C84.12 34.32 84.4933 34.2 85 34.2H90.96C91.4667 34.2 91.8267 34.32 92.04 34.56C92.28 34.7733 92.4 35.1333 92.4 35.64V43.32C92.4 44.5467 92.2933 45.4667 92.08 46.08C91.8667 46.6933 91.4667 47.4133 90.88 48.24L84.8 56.48V61.56C84.8 62.0667 84.68 62.44 84.44 62.68C84.2267 62.8933 83.8667 63 83.36 63ZM80.6 52.56C81.2133 52.56 81.7467 52.4267 82.2 52.16C82.68 51.8933 83.1333 51.4667 83.56 50.88L87.56 45.48C87.88 45.0533 88.0533 44.5867 88.08 44.08C88.1333 43.5467 88.16 42.9867 88.16 42.4V37.8H87.76V42.4C87.76 42.96 87.7333 43.5067 87.68 44.04C87.6267 44.5467 87.4667 44.9733 87.2 45.32L83.2 50.72C82.8 51.2267 82.3867 51.6 81.96 51.84C81.56 52.0533 81.1067 52.16 80.6 52.16H79.52C79.0667 52.16 78.6133 52.0533 78.16 51.84C77.7067 51.6267 77.3067 51.2533 76.96 50.72L73.08 45.32C72.8133 44.92 72.6533 44.48 72.6 44C72.5467 43.4933 72.52 42.96 72.52 42.4V37.8H72.12V42.4C72.12 42.9867 72.1467 43.5467 72.2 44.08C72.2533 44.6133 72.4267 45.08 72.72 45.48L76.6 50.88C77.0267 51.4667 77.4667 51.8933 77.92 52.16C78.4 52.4267 78.9333 52.56 79.52 52.56H79.92V59.4H80.32V52.56H80.6ZM82.36 96H75.88C75.3733 96 75 95.8933 74.76 95.68C74.5467 95.44 74.44 95.0667 74.44 94.56V74.92H68.56C68.0533 74.92 67.68 74.8133 67.44 74.6C67.2267 74.36 67.12 73.9867 67.12 73.48V68.64C67.12 68.1333 67.2267 67.7733 67.44 67.56C67.68 67.32 68.0533 67.2 68.56 67.2H89.68C90.1867 67.2 90.5467 67.32 90.76 67.56C91 67.7733 91.12 68.1333 91.12 68.64V73.48C91.12 73.9867 91 74.36 90.76 74.6C90.5467 74.8133 90.1867 74.92 89.68 74.92H83.8V94.56C83.8 95.0667 83.68 95.44 83.44 95.68C83.2267 95.8933 82.8667 96 82.36 96ZM78.92 92.4H79.32V71.2H87.52V70.8H70.72V71.2H78.92V92.4Z" fill="white"/>
</svg>
