<svg width="80" height="61" viewBox="0 0 63 48" fill="none" xmlns="http://www.w3.org/2000/svg">
<path d="M44.811 25.1806C44.0965 25.3772 44.1205 25.5683 44.918 26.2338C45.8258 26.9924 46.5113 27.1274 46.7445 26.6011C46.9749 26.0652 45.5158 24.9868 44.811 25.1806Z" fill="#AB0F29" fill-opacity="0.5"/>
<path d="M49.5577 28.9343C48.1678 27.6274 46.6043 28.0596 47.9873 29.379C50.0701 31.3504 52.5584 33.246 53.2122 33.3797C53.6306 33.4565 54.3038 33.2615 54.3278 33.0565C54.3431 32.7497 52.902 32.0935 49.5577 28.9343Z" fill="#AB0F29" fill-opacity="0.5"/>
<path d="M57.2503 22.6708C51.5445 22.4789 46.5352 22.0643 45.8735 22.0476C45.4967 22.0421 45.8031 22.7039 46.32 23.0128C47.165 23.5185 59.0197 23.5967 58.872 23.087C58.8023 22.8466 58.2379 22.6974 57.2503 22.6708Z" fill="#AB0F29" fill-opacity="0.5"/>
<path d="M31.0838 33.3905C30.6398 33.4774 30.1041 34.7585 30.4185 34.9801C30.6129 35.1114 31.2408 34.9399 31.3954 34.7179C31.7962 34.1223 31.5978 33.2936 31.0838 33.3905Z" fill="#AB0F29" fill-opacity="0.5"/>
<path d="M45.2812 18.456C45.8288 18.1514 47.7347 16.5983 52.1153 12.9001C54.83 10.6123 54.8806 10.5351 54.1354 10.2298C53.2745 9.88503 53.5281 10.0409 47.0376 15.883C44.688 17.9919 43.8263 19.2633 45.2812 18.456Z" fill="#AB0F29" fill-opacity="0.5"/>
<path d="M51.2223 17.9125C50.5531 18.0856 50.501 18.1215 50.5251 18.3126C50.5773 18.6728 50.8524 18.6869 52.2624 18.3722C52.272 18.3694 55.6103 17.694 57.0693 17.2608C58.2234 16.9264 57.5505 16.475 56.9702 16.4868C56.0529 16.5232 54.1105 17.159 51.2223 17.9125Z" fill="#AB0F29" fill-opacity="0.5"/>
<path d="M16.2907 27.2733C16.7421 26.6005 16.4267 26.4834 14.7165 26.6974C13.5892 26.8364 13.7094 27.7189 14.8564 27.7201C15.8894 27.7231 16.024 27.6842 16.2907 27.2733Z" fill="#AB0F29" fill-opacity="0.5"/>
<path d="M29.563 37.9285C28.6261 41.171 28.5683 41.511 28.9315 41.5413C29.1778 41.5637 29.6791 41.3872 29.8793 41.2145C30.2178 40.9079 31.0681 36.9711 30.9295 36.3128C30.76 35.4758 30.022 36.3465 29.563 37.9285Z" fill="#AB0F29" fill-opacity="0.5"/>
<path d="M17.6772 29.8634C17.4186 29.8341 16.9544 30.0311 14.7372 31.1218C8.33144 34.2706 7.0763 34.4361 8.49052 34.8916C9.0069 35.0547 9.54271 34.8892 11.7478 33.8645C17.9909 30.9818 19.3779 30.0482 17.6772 29.8634Z" fill="#AB0F29" fill-opacity="0.5"/>
<path d="M19.0588 33.7685C19.5063 33.9098 19.8005 33.8454 20.1034 33.5596C20.4885 33.1978 20.4474 32.8761 19.9946 32.7884C19.089 32.613 18.223 33.5103 19.0588 33.7685Z" fill="#AB0F29" fill-opacity="0.5"/>
<path d="M25.0155 33.3144C24.7804 33.3304 24.5663 33.455 24.4322 33.6398C23.2377 35.3098 21.8078 37.319 20.739 38.3793C18.8055 40.3052 16.7312 42.8245 16.8232 43.1419C17.0489 43.9209 18.0271 43.6269 19.0433 42.4568C23.4683 37.4008 26.0801 33.7148 26.1575 33.4422C26.2227 33.2356 25.505 33.2768 25.0155 33.3144Z" fill="#AB0F29" fill-opacity="0.5"/>
<path d="M17.1632 35.8605C15.4726 36.538 11.9367 39.1576 12.417 39.5918C12.8117 39.9465 13.5455 39.8173 14.3467 39.2724C15.7899 38.2808 17.8629 36.5126 18.0663 36.0992C18.0663 36.0992 18.4225 35.3497 17.1632 35.8605Z" fill="#AB0F29" fill-opacity="0.5"/>
<path d="M39.4708 16.7517C40.0254 16.8307 40.3301 16.659 40.6059 16.0996C40.9676 15.3693 40.9221 15.3201 43.5963 8.07143C44.239 6.33192 44.2191 6.19161 43.3406 6.28979C42.7866 6.3565 42.7046 6.50535 41.6299 9.30827C39.1046 15.9195 38.8818 16.6617 39.4708 16.7517Z" fill="#AB0F29" fill-opacity="0.5"/>
<path d="M36.7353 33.4313C37.0843 34.0599 37.6601 34.3204 37.8651 33.9483C37.947 33.7995 37.6509 32.9575 37.4856 32.8907C37.0062 32.6752 36.5137 33.0264 36.7353 33.4313Z" fill="#AB0F29" fill-opacity="0.5"/>
<path d="M26.6337 15.8739C26.6856 15.765 26.6425 15.6524 26.4878 15.4783C25.9366 14.8353 24.5066 13.1022 24.1361 12.6153C23.3857 11.6443 22.7123 11.0472 22.425 11.0991C22.0388 11.1694 22.0832 11.2503 23.3324 12.8273C25.6195 15.7195 26.3868 16.4249 26.6337 15.8739Z" fill="#AB0F29" fill-opacity="0.5"/>
<path d="M31.1884 17.598C31.6893 17.6718 32.1122 17.4763 32.144 17.1543C32.1849 16.6838 29.4576 7.48716 29.2021 7.21717C28.8859 6.88138 28.3759 6.95617 28.1918 7.36397C28.043 7.67812 28.0598 7.73582 28.6966 9.96982C29.0493 11.2229 29.4633 12.6876 29.5973 13.2221C30.2297 15.7284 30.9049 17.5551 31.1884 17.598Z" fill="#AB0F29" fill-opacity="0.5"/>
<path d="M25.2075 18.8306C23.4885 17.4314 17.6073 12.9641 17.5977 12.9669C16.8625 12.4084 13.6002 11.3314 18.8167 15.3033C21.425 17.2893 23.3331 18.8735 24.4917 19.3822C25.2149 19.6834 26.1194 19.5672 25.2075 18.8306Z" fill="#AB0F29" fill-opacity="0.5"/>
<path d="M7.83151 20.0604C9.46594 20.5564 17.5041 23.6169 18.7879 23.7661C19.22 23.8181 19.3161 23.7903 19.6534 23.5153C20.2924 22.9861 19.8859 22.7704 14.8577 20.9956C10.3639 19.4101 8.08655 18.746 7.11564 18.7771C6.59855 18.7914 5.48934 19.3526 7.83151 20.0604Z" fill="#AB0F29" fill-opacity="0.5"/>
<path d="M48.2016 10.5105C49.6188 8.81758 50.2867 7.56074 49.7491 7.61226C49.2913 7.6511 46.8409 10.3835 46.8782 10.8001C46.9267 11.2552 47.7389 11.072 48.2016 10.5105Z" fill="#AB0F29" fill-opacity="0.5"/>
<path d="M4.04235 28.5704C4.12514 28.6403 11.6745 28.6107 12.2688 27.5316C12.6581 26.8246 12.4097 26.6152 11.2189 26.6788C4.74475 27.0014 2.83628 27.5021 4.04235 28.5704Z" fill="#AB0F29" fill-opacity="0.5"/>
<path d="M38.512 37.3681C39.2679 38.6815 39.5962 38.9512 39.9743 38.5289C40.077 38.4158 39.9838 38.13 39.3645 36.5685C39.1049 35.9244 38.7325 35.6466 38.2805 35.7776C37.7488 35.9212 37.7741 36.0807 38.512 37.3681Z" fill="#AB0F29" fill-opacity="0.5"/>
<path d="M45.2893 13.304C45.7449 13.4013 46.0826 13.1992 46.4216 12.6422C46.9574 11.7573 46.1789 11.7327 45.3486 12.6092C44.965 13.0123 44.9466 13.2365 45.2893 13.304Z" fill="#AB0F29" fill-opacity="0.5"/>
<path d="M42.0783 31.435C42.6769 32.2415 45.2107 36.0212 46.1212 36.3933C46.4394 36.5201 46.6631 36.3927 46.5879 36.133C46.5126 35.8734 42.9635 30.5322 42.4775 29.6827C41.9389 28.7233 39.3441 27.7551 42.0783 31.435Z" fill="#AB0F29" fill-opacity="0.5"/>
<path d="M35.9976 8.54247C36.3358 7.76687 35.4391 7.04676 34.8249 7.58958C34.4699 7.91137 34.5189 8.51223 34.9118 8.75283C35.255 8.96611 35.8653 8.84143 35.9976 8.54247Z" fill="#AB0F29" fill-opacity="0.5"/>
<path d="M35.9692 14.9933C35.9822 14.4266 35.9712 11.1147 35.9788 10.9249C36.0125 10.3939 35.2679 10.2344 34.9354 10.706C34.7274 10.9956 34.9863 14.7673 35.2817 15.7867C35.5353 16.6619 35.9406 16.19 35.9692 14.9933Z" fill="#AB0F29" fill-opacity="0.5"/>
</svg>
