<svg width="12" height="13" viewBox="0 0 12 13" fill="none" xmlns="http://www.w3.org/2000/svg">
<path d="M6.67693 1.38107C5.54814 2.01243 5.56729 2.01236 5.26118 1.20881C4.84027 0.0417551 3.36709 -0.340811 1.89392 0.32881C-0.841963 1.59152 -0.593302 6.27884 2.50609 10.9088C3.09918 11.7889 3.15658 14.295 6.23684 11.1765C7.92046 9.47378 10.4842 6.64231 11.1921 5.60918C13.5262 2.18454 10.4268 -0.723452 6.67693 1.38107ZM10.3312 3.21767C10.159 4.53778 5.43329 10.2008 4.13231 10.6409C3.78794 10.7557 2.29567 5.97269 2.06609 4.07862C1.75998 1.40013 3.09926 -0.26432 3.82627 1.91673C3.99846 2.45243 4.13231 3.21771 4.13231 3.63862C4.11318 5.03525 5.45248 5.09254 6.10297 3.71503C7.34655 1.05568 10.6564 0.692244 10.3312 3.21767Z" fill="#FFADE3"/>
</svg>
