<svg width="390" height="1007" viewBox="0 0 390 1007" fill="none" xmlns="http://www.w3.org/2000/svg">
<g opacity="0.15" filter="url(#filter0_f_284_3730)">
<path d="M170.705 -12C172.45 -8.46629 178.044 2.39284 199.729 30.1959C218.285 53.9881 228.757 63.0831 241.682 81.3449C256.424 102.174 261.833 136.297 264.366 154.117C267.513 176.256 264.692 203.372 262.201 226.437C257.844 266.781 261.895 279.411 239.794 300.013C222.968 315.697 213.562 318.24 181.02 332.873C122.964 358.977 82.8351 345.297 59.9721 365.042C37.1091 384.788 40.2285 383.469 34.5709 394.665C27.5282 408.601 30.6135 426.078 31.0256 449.87C31.3887 470.838 41.7667 479.836 47.0578 488.908C53.1812 499.407 74.6681 507.424 89.5188 513.095C99.9619 517.083 117.823 515.284 133.624 511.903C146.992 509.043 159.034 506.071 189.616 503.361C214.055 501.196 236.795 499.798 264.227 503.92C286.612 507.285 298.418 510.991 310.364 515.748C325.401 521.737 340.206 535.715 352.605 547.572C362.5 557.035 365.438 569.469 365.988 589.524C366.366 603.334 357.999 613.246 352.496 623.124C345.371 635.913 332.228 649.893 322.11 660.247C305.759 676.979 290.439 691.432 279.032 703.78C269.083 714.551 267.29 728.093 261.895 740.49C255.309 755.624 253.043 767.644 250.01 779.572C246.218 794.483 243.514 810.182 242.312 841.502C246.174 854.973 249.356 862.088 250.059 867.253C250.413 869.855 250.762 872.418 251.122 877" stroke="#FFC9D4" stroke-width="120" stroke-linecap="round"/>
</g>
<defs>
<filter id="filter0_f_284_3730" x="-99.9999" y="-142.013" width="596" height="1149.02" filterUnits="userSpaceOnUse" color-interpolation-filters="sRGB">
<feFlood flood-opacity="0" result="BackgroundImageFix"/>
<feBlend mode="normal" in="SourceGraphic" in2="BackgroundImageFix" result="shape"/>
<feGaussianBlur stdDeviation="35" result="effect1_foregroundBlur_284_3730"/>
</filter>
</defs>
</svg>
