<svg width="25" height="37" viewBox="0 0 25 37" fill="none" xmlns="http://www.w3.org/2000/svg">
<path d="M18.6331 6.40389C18.9446 5.64999 17.1941 4.98324 11.1826 3.53899C4.81809 2.01432 3.35864 1.9096 3.31578 2.88737C3.27338 4.23272 18.098 7.61019 18.6331 6.40389Z" fill="white"/>
<path d="M14.1887 34.9582C16.5053 35.7272 16.935 35.4289 20.1343 30.845C23.4438 26.1139 23.8799 25.1319 23.0446 24.4383C21.525 23.1868 20.2471 24.1588 15.8619 29.8065C12.6289 33.9751 12.4788 34.3907 14.1887 34.9582Z" fill="white"/>
<path d="M4.02456 22.7423C5.68301 23.3172 6.39959 23.1877 9.0187 21.8648C16.773 17.9109 22.6256 15.7018 19.3749 14.6474C18.0511 14.208 16.5338 14.7943 7.30971 19.1176C2.22195 21.5316 1.81082 21.9585 4.02456 22.7423Z" fill="white"/>
</svg>
