<svg width="20" height="20" viewBox="0 0 14 15" fill="none" xmlns="http://www.w3.org/2000/svg">
<path d="M4.88977 8.64254C3.43998 9.006 3.00743 9.44073 2.64379 10.8898C2.63557 10.9214 2.61711 10.9493 2.59131 10.9692C2.5655 10.9892 2.53381 11 2.50119 11C2.46857 11 2.43687 10.9892 2.41107 10.9692C2.38526 10.9493 2.3668 10.9214 2.35858 10.8898C1.99495 9.44073 1.56002 9.006 0.110229 8.64254C0.0786639 8.63432 0.0507158 8.61587 0.0307677 8.59008C0.0108196 8.56428 0 8.5326 0 8.5C0 8.4674 0.0108196 8.43572 0.0307677 8.40992C0.0507158 8.38413 0.0786639 8.36568 0.110229 8.35747C1.56002 7.994 1.99495 7.55928 2.35858 6.11018C2.3668 6.07863 2.38526 6.0507 2.41107 6.03076C2.43687 6.01082 2.46857 6 2.50119 6C2.53381 6 2.5655 6.01082 2.59131 6.03076C2.61711 6.0507 2.63557 6.07863 2.64379 6.11018C3.00743 7.55928 3.43998 7.994 4.88977 8.35747C4.92133 8.36568 4.94928 8.38413 4.96923 8.40992C4.98918 8.43572 5 8.4674 5 8.5C5 8.5326 4.98918 8.56428 4.96923 8.59008C4.94928 8.61587 4.92133 8.63432 4.88977 8.64254Z" fill="#AB0F29" fill-opacity="0.5"/>
<path d="M9.91181 13.114C8.75198 13.4048 8.40594 13.7526 8.11503 14.9119C8.10846 14.9371 8.09369 14.9594 8.07305 14.9754C8.0524 14.9913 8.02704 15 8.00095 15C7.97486 15 7.9495 14.9913 7.92885 14.9754C7.90821 14.9594 7.89344 14.9371 7.88687 14.9119C7.59596 13.7526 7.24801 13.4048 6.08818 13.114C6.06293 13.1075 6.04057 13.0927 6.02461 13.0721C6.00866 13.0514 6 13.0261 6 13C6 12.9739 6.00866 12.9486 6.02461 12.9279C6.04057 12.9073 6.06293 12.8925 6.08818 12.886C7.24801 12.5952 7.59596 12.2474 7.88687 11.0881C7.89344 11.0629 7.90821 11.0406 7.92885 11.0246C7.9495 11.0087 7.97486 11 8.00095 11C8.02704 11 8.0524 11.0087 8.07305 11.0246C8.09369 11.0406 8.10846 11.0629 8.11503 11.0881C8.40594 12.2474 8.75198 12.5952 9.91181 12.886C9.93707 12.8925 9.95943 12.9073 9.97539 12.9279C9.99134 12.9486 10 12.9739 10 13C10 13.0261 9.99134 13.0514 9.97539 13.0721C9.95943 13.0927 9.93707 13.1075 9.91181 13.114Z" fill="#AB0F29" fill-opacity="0.5"/>
<path d="M13.8236 4.22806C11.504 4.8096 10.8119 5.50516 10.2301 7.82372C10.2169 7.8742 10.1874 7.91889 10.1461 7.9508C10.1048 7.9827 10.0541 8 10.0019 8C9.94971 8 9.899 7.9827 9.85771 7.9508C9.81642 7.91889 9.78688 7.8742 9.77373 7.82372C9.19192 5.50516 8.49602 4.8096 6.17637 4.22806C6.12586 4.21492 6.08115 4.1854 6.04923 4.14412C6.01731 4.10285 6 4.05216 6 4C6 3.94784 6.01731 3.89715 6.04923 3.85588C6.08115 3.81461 6.12586 3.78509 6.17637 3.77194C8.49602 3.19041 9.19192 2.49484 9.77373 0.176286C9.78688 0.125805 9.81642 0.0811125 9.85771 0.0492107C9.899 0.0173089 9.94971 0 10.0019 0C10.0541 0 10.1048 0.0173089 10.1461 0.0492107C10.1874 0.0811125 10.2169 0.125805 10.2301 0.176286C10.8119 2.49484 11.504 3.19041 13.8236 3.77194C13.8741 3.78509 13.9189 3.81461 13.9508 3.85588C13.9827 3.89715 14 3.94784 14 4C14 4.05216 13.9827 4.10285 13.9508 4.14412C13.9189 4.1854 13.8741 4.21492 13.8236 4.22806Z" fill="#AB0F29" fill-opacity="0.5"/>
</svg>
